<svg width="32" height="32" viewBox="0 0 32 32" fill="none" xmlns="http://www.w3.org/2000/svg">
<circle cx="16" cy="16" r="16" fill="black"/>
<path d="M8.69425 20.9655H4.28725V12.2555H8.69425C11.5673 12.2555 13.3873 13.8545 13.3873 16.6105C13.3873 19.3665 11.5673 20.9655 8.69425 20.9655ZM8.69425 14.4525H6.73125V18.7685H8.69425C10.2413 18.7685 10.7743 18.5735 10.7743 16.6105C10.7743 14.6475 10.2413 14.4525 8.69425 14.4525ZM18.5189 22.6945H13.8389V20.9655H18.5189V22.6945ZM23.6524 20.9655H19.2454V12.2555H23.6524C26.5254 12.2555 28.3454 13.8545 28.3454 16.6105C28.3454 19.3665 26.5254 20.9655 23.6524 20.9655ZM23.6524 14.4525H21.6894V18.7685H23.6524C25.1994 18.7685 25.7324 18.5735 25.7324 16.6105C25.7324 14.6475 25.1994 14.4525 23.6524 14.4525Z" fill="white"/>
</svg>
