<svg width="294" height="368" viewBox="0 0 294 368" fill="none" xmlns="http://www.w3.org/2000/svg">
<g clip-path="url(#clip0_305_95)">
<path d="M257.25 36.8H36.75C31.8766 36.8 27.2029 38.7386 23.7569 42.1893C20.3109 45.64 18.375 50.3201 18.375 55.2V202.4C18.375 207.28 20.3109 211.96 23.7569 215.411C27.2029 218.861 31.8766 220.8 36.75 220.8H115.028C111.743 226.184 106.921 230.457 101.185 233.067C95.55 236.501 90.16 239.691 88.935 245.333C88.7897 247.238 89.0905 249.15 89.8136 250.918C90.5367 252.685 91.6621 254.26 93.1 255.515C93.7074 256.209 94.4635 256.757 95.3119 257.118C96.1603 257.479 97.0792 257.644 98 257.6H196C197.616 257.577 199.157 256.916 200.288 255.76C201.783 254.492 202.953 252.884 203.699 251.069C204.445 249.255 204.745 247.288 204.575 245.333C203.84 239.445 198.45 236.256 192.325 233.067C186.589 230.457 181.767 226.184 178.482 220.8H257.25C262.123 220.8 266.797 218.861 270.243 215.411C273.689 211.96 275.625 207.28 275.625 202.4V55.2C275.625 50.3201 273.689 45.64 270.243 42.1893C266.797 38.7386 262.123 36.8 257.25 36.8ZM263.375 184H30.625V55.2C30.625 53.5734 31.2703 52.0134 32.419 50.8631C33.5676 49.7129 35.1255 49.0667 36.75 49.0667H257.25C258.874 49.0667 260.432 49.7129 261.581 50.8631C262.73 52.0134 263.375 53.5734 263.375 55.2V184Z" fill="#14BB88"/>
</g>
<defs>
<clipPath id="clip0_305_95">
<rect width="294" height="368" fill="white"/>
</clipPath>
</defs>
</svg>
