<svg width="24" height="24" viewBox="0 0 24 24" fill="none" xmlns="http://www.w3.org/2000/svg">
<g id="icon/rocket">
<path id="Vector" d="M4.5 16.5003C3 17.7603 2.5 21.5003 2.5 21.5003C2.5 21.5003 6.24 21.0003 7.5 19.5003C8.21 18.6603 8.2 17.3703 7.41 16.5903C7.02131 16.2193 6.50929 16.005 5.97223 15.9883C5.43516 15.9717 4.91088 16.1541 4.5 16.5003Z" stroke="#10966D" stroke-width="2" stroke-linecap="round" stroke-linejoin="round"/>
<path id="Vector_2" d="M12 15.0002L9 12.0002C9.53214 10.6197 10.2022 9.29631 11 8.05025C12.1652 6.18723 13.7876 4.6533 15.713 3.59434C17.6384 2.53538 19.8027 1.98662 22 2.00025C22 4.72025 21.22 9.50025 16 13.0002C14.7369 13.799 13.3968 14.469 12 15.0002Z" stroke="#10966D" stroke-width="2" stroke-linecap="round" stroke-linejoin="round"/>
<path id="Vector_3" d="M9 11.9995H4C4 11.9995 4.55 8.96953 6 7.99953C7.62 6.91953 11 7.99953 11 7.99953" stroke="#10966D" stroke-width="2" stroke-linecap="round" stroke-linejoin="round"/>
<path id="Vector_4" d="M12 15V20C12 20 15.03 19.45 16 18C17.08 16.38 16 13 16 13" stroke="#10966D" stroke-width="2" stroke-linecap="round" stroke-linejoin="round"/>
</g>
</svg>
